HIERARCHY
ROOT Hips
{
	OFFSET 0.000000 0.000000 0.000000 
	CHANNELS 6 Xposition Yposition Zposition Yrotation Zrotation Xrotation 
	JOINT Lumbar
	{
		OFFSET 0.000000 0.000000 0.000000 
		CHANNELS 3 Zrotation Xrotation Yrotation
		JOINT Neck
		{
			OFFSET 0.000000 0.445665 0.000000 
			CHANNELS 3 Zrotation Xrotation Yrotation
			End Site
			{
				OFFSET 0.000000 0.227535 0.000000 
			}
		}
		JOINT RightShoulder
		{
			OFFSET 0.019635 0.377685 0.194865 
			CHANNELS 3 Zrotation Xrotation Yrotation
			JOINT RightElbow
			{
				OFFSET 0.000000 -0.243375 0.000000 
				CHANNELS 2 Zrotation Yrotation
				JOINT RightWrist
				{
					OFFSET 0.000000 -0.264825 0.000000 
					CHANNELS 2 Zrotation Xrotation
					End Site
					{
						OFFSET 0.006600 -0.176220 0.000990 
					}
				}
			}
		}
		JOINT LeftShoulder
		{
			OFFSET 0.019635 0.377685 -0.194865 
			CHANNELS 3 Zrotation Xrotation Yrotation
			JOINT LeftElbow
			{
				OFFSET 0.000000 -0.243375 0.000000 
				CHANNELS 2 Zrotation Yrotation
				JOINT LeftWrist
				{
					OFFSET 0.000000 -0.264825 0.000000 
					CHANNELS 2 Zrotation Xrotation
					End Site
					{
						OFFSET 0.006600 -0.176220 -0.000990 
					}
				}
			}
		}
	}
	JOINT RightHip
	{
		OFFSET 0.052140 -0.069960 0.075570 
		CHANNELS 3 Zrotation Xrotation Yrotation
		JOINT RightKnee
		{
			OFFSET 0.000000 -0.402270 0.000000 
			CHANNELS 1 Zrotation
			JOINT RightAnkle
			{
				OFFSET 0.000000 -0.404085 0.000000 
				CHANNELS 3 Zrotation Xrotation Yrotation
				End Site
				{
					OFFSET 0.204105 -0.089430 0.008415 
				}
			}
		}
	}
	JOINT LeftHip
	{
		OFFSET 0.052140 -0.069960 -0.075570 
		CHANNELS 3 Zrotation Xrotation Yrotation
		JOINT LeftKnee
		{
			OFFSET 0.000000 -0.402270 0.000000 
			CHANNELS 1 Zrotation
			JOINT LeftAnkle
			{
				OFFSET 0.000000 -0.404085 0.000000 
				CHANNELS 3 Zrotation Xrotation Yrotation
				End Site
				{
					OFFSET 0.204105 -0.089430 -0.008415 
				}
			}
		}
	}
}
MOTION
Frames: 19
Frame Time: 0.02
8e-05 -6e-05 0.00063 -179.07289 -40.81963 -1.44174 48.14893 1.36909 -5.95296 3.44609 0.28877 -1.00555 -22.02916 -2.6975 -14.72454 37.24238 166.17154 29.16656 13.39884 -25.98115 2.9999 9.56545 47.25415 -169.49843 37.50585 -13.35974 43.48098 0.2902 -9.63754 -19.25248 -6.01965 -2.21855 -3.28496 47.44992 4.6916 10.54576 -24.97492 -6.35278 1.30593 2.8726
9e-05 -6e-05 5e-05 -179.08357 -40.75673 -1.37394 48.19853 1.39347 -6.17439 3.24347 0.04848 -1.00771 -22.35243 -3.31391 -13.35073 37.1424 159.11964 27.12693 12.21872 -25.84002 3.90153 7.64993 47.19652 -162.89056 35.19791 -12.21878 43.40752 0.23023 -9.88371 -19.25203 -6.01906 -2.19506 -3.27173 47.38056 4.65484 10.43411 -24.97349 -6.35252 1.31767 2.87838
0.00011 -6e-05 -0.00052 -179.09422 -40.69399 -1.30624 48.24807 1.41783 -6.39539 3.04123 -0.19148 -1.00987 -22.6751 -3.9283 -11.98253 37.04228 152.08918 25.0933 11.04226 -25.69928 4.80046 5.7405 47.13912 -156.30297 32.89702 -11.08132 43.33426 0.17044 -10.12905 -19.25159 -6.01846 -2.17162 -3.25853 47.31137 4.61818 10.32286 -24.97205 -6.35226 1.32937 2.88415
0.00012 -6e-05 -0.00109 -179.10487 -40.63128 -1.23864 48.29753 1.44215 -6.61618 2.83919 -0.43108 -1.01202 -22.99744 -4.54277 -10.61311 36.94255 145.05896 23.05991 9.86578 -25.55856 5.69932 3.83089 47.08167 -149.71545 30.59618 -9.94388 43.26103 0.11066 -10.37445 -19.25113 -6.01787 -2.1482 -3.24534 47.24222 4.58154 10.21159 -24.97062 -6.35199 1.34107 2.88992
0.00013 -5e-05 -0.00166 -179.11553 -40.56844 -1.17098 48.34702 1.46648 -6.8373 2.63685 -0.6709 -1.01418 -23.32023 -5.15934 -9.23773 36.84309 138.00742 21.02064 8.68563 -25.4175 6.60086 1.91517 47.02397 -143.10769 28.28832 -8.80292 43.18759 0.05072 -10.62069 -19.25066 -6.01728 -2.12473 -3.23212 47.17292 4.54478 10.09983 -24.96919 -6.35172 1.3528 2.8957
0.00015 -5e-05 -0.00224 -179.12615 -40.50592 -1.1032 48.39666 1.4909 -7.05804 2.43484 -0.91114 -1.01633 -23.64263 -5.76916 -7.88478 36.74158 131.02166 18.99896 7.51699 -25.27748 7.49424 0.01907 46.96724 -136.56286 26.00222 -7.67289 43.11472 -0.00875 -10.86412 -19.25029 -6.01667 -2.10137 -3.219 47.10396 4.50835 9.9896 -24.96772 -6.35149 1.36445 2.90144
0.00016 -5e-05 -0.0028 -179.13687 -40.44282 -1.03575 48.44595 1.51508 -7.27927 2.23239 -1.15018 -1.01848 -23.96546 -6.39174 -6.48786 36.64438 123.91165 16.94422 6.32655 -25.13543 8.403 -1.91439 46.90855 -129.89901 23.67497 -6.5222 43.04081 -0.06909 -11.11294 -19.24971 -6.0161 -2.07781 -3.20568 47.0344 4.47134 9.87663 -24.96635 -6.35119 1.37623 2.90726
0.00017 -5e-05 -0.00338 -179.14743 -40.38023 -0.96795 48.49554 1.53955 -7.50013 2.03034 -1.3905 -1.02064 -24.28789 -7.00279 -5.13207 36.54307 116.91547 14.91977 5.15609 -24.9954 9.29769 -3.81344 46.85181 -123.3442 21.38547 -5.39042 42.96783 -0.12867 -11.3568 -19.24935 -6.01549 -2.05444 -3.19254 46.96538 4.43477 9.7658 -24.96489 -6.35094 1.38793 2.91302
0.00019 -5e-05 -0.00396 -179.15807 -40.31833 -0.89986 48.5456 1.56413 -7.72035 1.82869 -1.63187 -1.02279 -24.61007 -7.59904 -3.82392 36.43715 110.05838 12.93226 4.01004 -24.85718 10.17512 -5.67103 46.79686 -116.92273 19.14193 -4.28183 42.89606 -0.1872 -11.59464 -19.24913 -6.01484 -2.03126 -3.17963 46.89705 4.3991 9.65908 -24.96331 -6.35078 1.39938 2.91864
0.00019 -5e-05 -0.0045 -179.16909 -40.25269 -0.83385 48.5933 1.58736 -7.94368 1.62445 -1.86567 -1.02495 -24.9344 -8.27836 -2.23374 36.35899 102.40066 10.73189 2.72349 -24.70656 11.1517 -7.76905 46.72984 -109.73403 16.63333 -3.04002 42.81754 -0.25139 -11.86723 -19.24774 -6.01446 -2.00688 -3.16543 46.82481 4.35934 9.53319 -24.96236 -6.35017 1.41181 2.92485
0.00023 -5e-05 -0.00512 -179.17878 -40.1948 -0.76321 48.64571 1.61386 -8.16076 1.42591 -2.11637 -1.0271 -25.25366 -8.7837 -1.24358 36.22152 96.43292 8.98097 1.73345 -24.58338 11.91911 -9.35847 46.6894 -104.16461 14.6845 -2.07924 42.75313 -0.30388 -12.06644 -19.24903 -6.01349 -1.9851 -3.15394 46.76079 4.3275 9.44491 -24.96013 -6.35047 1.42247 2.92997
0.00035 -9e-05 -0.00595 -179.18895 -40.15951 -0.68171 48.71336 1.64633 -8.35749 1.24119 -2.40656 -1.02907 -25.56344 -8.79767 -1.87582 35.92651 95.14124 8.47241 1.56434 -24.52596 12.10667 -9.54884 46.71355 -103.07638 14.28202 -1.89733 42.72895 -0.32215 -12.063 -19.25589 -6.01105 -1.97002 -3.14985 46.72004 4.32368 9.48501 -24.95418 -6.35368 1.42562 2.93081
0.00051 -0.00013 -0.00684 -179.19695 -40.1318 -0.59518 48.78515 1.68281 -8.54809 1.06264 -2.71508 -1.0311 -25.86721 -8.64031 -3.11524 35.57152 95.5402 8.41373 1.69174 -24.49803 12.08518 -9.22837 46.76594 -103.60732 14.43977 -1.99624 42.71869 -0.32914 -11.98619 -19.26575 -6.00799 -1.95764 -3.14847 46.68751 4.32675 9.55894 -24.94707 -6.35773 1.42743 2.93075
0.00065 -0.00017 -0.00771 -179.20334 -40.09974 -0.50981 48.85373 1.71923 -8.74417 0.88228 -3.01962 -1.03308 -26.17099 -8.56952 -4.09231 35.23992 95.13914 8.14295 1.67848 -24.4626 12.16333 -9.1449 46.81085 -103.37231 14.33429 -1.96152 42.70107 -0.34255 -11.94369 -19.27541 -6.00512 -1.94438 -3.14587 46.65064 4.32245 9.59998 -24.94047 -6.36111 1.4317 2.93197
0.00081 -0.00021 -0.00857 -179.22098 -40.0714 -0.42936 48.92856 1.74757 -8.9307 0.69721 -3.30553 -1.03486 -26.48668 -8.45848 -5.01241 34.92235 94.87172 7.90432 1.69014 -24.40156 12.2219 -9.04316 46.83319 -103.26674 14.26605 -1.95245 42.68778 -0.35011 -11.89667 -19.28025 -6.00263 -1.92976 -3.14323 46.61593 4.33566 9.71195 -24.93352 -6.36566 1.42844 2.92965
0.00094 -0.00025 -0.00945 -179.21432 -40.03728 -0.33727 48.99057 1.79451 -9.13334 0.52407 -3.63498 -1.03743 -26.77557 -8.39459 -6.19611 34.56406 94.73121 7.70666 1.72096 -24.40181 12.27115 -8.85438 46.90924 -103.27656 14.25346 -1.95689 42.66887 -0.36763 -11.84205 -19.29574 -5.99922 -1.91849 -3.14128 46.57918 4.31454 9.68809 -24.92757 -6.36802 1.44018 2.93432
0.00097 -0.00028 -0.01038 -179.14371 -39.98363 -0.21615 49.0222 1.88489 -9.40131 0.37673 -4.07616 -1.03908 -26.99581 -8.46959 -7.95201 34.0851 94.49074 7.50166 1.72554 -24.55557 12.35105 -8.58584 47.12614 -103.19294 14.25169 -1.92597 42.62978 -0.41139 -11.78104 -19.34064 -5.99325 -1.91677 -3.14094 46.53164 4.19276 9.24668 -24.92228 -6.3637 1.49681 2.95988
0.00097 -0.0003 -0.01131 -179.04801 -39.92411 -0.0833 49.03931 1.99516 -9.68161 0.2422 -4.5609 -1.04206 -27.18775 -8.60399 -9.95578 33.57159 94.33155 7.32577 1.74116 -24.77143 12.42777 -8.24053 47.39593 -103.17209 14.2873 -1.89967 42.58466 -0.46612 -11.71541 -19.39597 -5.9864 -1.91821 -3.14115 46.48322 4.03709 8.67335 -24.92002 -6.35723 1.56799 2.99224
0.00099 -0.00032 -0.01221 -178.96235 -39.86856 0.04561 49.05952 2.10082 -9.94423 0.10551 -5.02879 -1.04651 -27.39113 -8.73332 -11.84742 33.08883 94.15154 7.14113 1.75488 -24.96462 12.50273 -7.90758 47.64218 -103.13228 14.30967 -1.87371 42.54328 -0.5187 -11.65432 -19.44607 -5.98005 -1.91749 -3.14082 46.43621 3.89948 8.18341 -24.91605 -6.35201 1.63044 3.02056
